<svg width="17" height="19" viewBox="0 0 17 19" fill="none" xmlns="http://www.w3.org/2000/svg">
<path d="M16.375 16.6562C16.5312 16.8125 16.5312 17.0625 16.375 17.1875L15.6562 17.9062C15.5312 18.0625 15.2812 18.0625 15.125 17.9062L11.3438 14.125C11.2812 14.0312 11.25 13.9375 11.25 13.8438V13.4375C10.0938 14.4062 8.625 15 7 15C3.40625 15 0.5 12.0938 0.5 8.5C0.5 4.9375 3.40625 2 7 2C10.5625 2 13.5 4.9375 13.5 8.5C13.5 10.125 12.875 11.625 11.9062 12.75H12.3125C12.4062 12.75 12.5 12.8125 12.5938 12.875L16.375 16.6562ZM7 13.5C9.75 13.5 12 11.2812 12 8.5C12 5.75 9.75 3.5 7 3.5C4.21875 3.5 2 5.75 2 8.5C2 11.2812 4.21875 13.5 7 13.5Z" fill="#0F0F0F"/>
</svg>
