<svg width="54" height="48" viewBox="0 0 54 48" fill="none" xmlns="http://www.w3.org/2000/svg">
<g opacity="0.5">
<path d="M28.2758 11.6087L28.3683 11.6363L28.3732 11.6307C28.7266 11.6854 29.0731 11.4714 29.1769 11.1207C30.0927 8.04349 32.9779 5.89354 36.1922 5.89354C36.5923 5.89354 36.9167 5.56905 36.9167 5.16901C36.9167 4.76895 36.5923 4.44448 36.1922 4.44448C32.2096 4.44448 28.863 7.0964 27.7884 10.7078C27.6741 11.0914 27.8926 11.4944 28.2758 11.6087Z" fill="#5B59FE" stroke="#F9FFF9" stroke-width="0.3"/>
<path d="M44.2343 33.3208H40.7875C40.4703 33.3208 40.2131 33.0635 40.2131 32.7462C40.2131 32.429 40.4703 32.1717 40.7875 32.1717H44.2343C48.9855 32.1717 52.8513 28.3055 52.8513 23.5539C52.8513 18.8022 48.9855 14.936 44.2343 14.936H44.1514C43.9848 14.936 43.8264 14.8638 43.7173 14.7378C43.6081 14.6119 43.5589 14.4448 43.5827 14.2799C43.634 13.922 43.6598 13.5625 43.6598 13.2125C43.6598 9.09441 40.3094 5.74366 36.1917 5.74366C34.5898 5.74366 33.0621 6.24431 31.7736 7.19185C31.4905 7.39991 31.0884 7.30758 30.9246 6.9961C27.2756 0.0468732 17.7446 -0.886337 12.8032 5.15889C10.7217 7.70565 9.90377 11.0186 10.5592 14.2475C10.6314 14.6041 10.3585 14.9365 9.99617 14.9365H9.76597C5.01477 14.9365 1.14899 18.8026 1.14899 23.5543C1.14899 28.306 5.01477 32.1721 9.76597 32.1721H13.2127C13.5299 32.1721 13.7872 32.4294 13.7872 32.7467C13.7872 33.0639 13.5299 33.3212 13.2127 33.3212H9.76597C4.38113 33.3212 0 28.9396 0 23.5543C0 18.32 4.13858 14.034 9.31501 13.7976C8.82877 10.4477 9.75859 7.06871 11.9136 4.43171C17.204 -2.04109 27.3427 -1.31557 31.6286 5.90207C32.9958 5.0448 34.5604 4.59507 36.1915 4.59507C41.1803 4.59507 45.1335 8.84164 44.7876 13.803C49.9164 14.0907 54 18.354 54 23.5539C54 28.9396 49.6189 33.3208 44.234 33.3208L44.2343 33.3208Z" fill="#5B59FE"/>
<path d="M12.4113 32.4216C12.4113 40.4243 18.9212 46.9348 26.9231 46.9348C34.9251 46.9348 41.4349 40.4242 41.4349 32.4216C41.4349 24.4188 34.9251 17.9083 26.9231 17.9083C18.9211 17.9083 12.4113 24.4189 12.4113 32.4216ZM13.8605 32.4216C13.8605 25.2184 19.7205 19.3577 26.9231 19.3577C34.1256 19.3577 39.9857 25.2183 39.9857 32.4216C39.9857 39.6248 34.1256 45.4855 26.9231 45.4855C19.7206 45.4855 13.8605 39.6249 13.8605 32.4216Z" fill="#5B59FE" stroke="#F9FFF9" stroke-width="0.3"/>
<path d="M26.6151 38.2039C26.6151 38.5191 26.8709 38.7745 27.1861 38.7745C27.5012 38.7745 27.7571 38.5195 27.7571 38.2039V27.2678C27.7571 26.9526 27.5013 26.6972 27.1861 26.6972C26.8709 26.6972 26.6151 26.9526 26.6151 27.2678V38.2039Z" fill="#5B59FE" stroke="#5B59FE" stroke-width="0.3"/>
<path d="M27.1856 28.0763L30.1467 31.0377C30.2579 31.149 30.4044 31.2048 30.5501 31.2048L27.1856 28.0763ZM27.1856 28.0763L24.2245 31.0376L27.1856 28.0763ZM23.4175 31.0377C23.6403 31.2605 24.0018 31.2607 24.2245 31.0377L30.5501 31.2048C30.6955 31.2048 30.8421 31.1495 30.9536 31.0377C31.1765 30.8148 31.1765 30.4536 30.9536 30.2307L27.589 26.8658C27.3662 26.643 27.0048 26.6428 26.7821 26.8658C26.7821 26.8658 26.782 26.8658 26.782 26.8659C26.782 26.8659 26.782 26.8659 26.782 26.8659L23.4175 30.2307C23.1946 30.4536 23.1946 30.8148 23.4175 31.0377Z" fill="#5B59FE" stroke="#5B59FE" stroke-width="0.3"/>
</g>
</svg>
